# xmcd
#
# Track frame offsets:
#	150
#	14947
#	26840
#	39600
#	53255
#	64507
#	77467
#	90842
#	103077
#	118232
#	131802
#	145337
#	158487
#	172342
#	185340
#	196909
#
# Disc length: 2798 seconds
#
# Revision: 1
# Processed by: cddbd v1.5.2PL0 Copyright (c) Steve Scherf et al.
# Submitted via: EasyCDDAExtractor 15.3.0.1
#
DISCID=d60aec10
DTITLE=Joe Turner - Maestros del Jazz y del Blues nº 62
DYEAR=1900
DGENRE=Blues
TTITLE0=Rocks in my bed
TTITLE1=Blues on Central Avenue
TTITLE2=Sun risin' blues
TTITLE3=Goin' to Chicago blues
TTITLE4=Blues in the night
TTITLE5=Cry baby blues
TTITLE6=It's the same old story
TTITLE7=Rebecca
TTITLE8=Little bittie gal's blues
TTITLE9=I got a gal for every day in the week
TTITLE10=Johnson and Turner blues
TTITLE11=May gal's a jockey
TTITLE12=Sally zu-zazz-blues
TTITLE13=New do-wee baby blues
TTITLE14=Wine-0-baby boogie
TTITLE15=R&B blues
EXTD=
EXTT0=
EXTT1=
EXTT2=
EXTT3=
EXTT4=
EXTT5=
EXTT6=
EXTT7=
EXTT8=
EXTT9=
EXTT10=
EXTT11=
EXTT12=
EXTT13=
EXTT14=
EXTT15=
PLAYORDER=
